<svg xmlns="http://www.w3.org/2000/svg" width="21" height="16" viewBox="0 0 21 16">
  <g id="theater_mode_icon_点击后" data-name="theater mode icon 点击后" transform="translate(-942 -556)">
    <path id="矩形_2895" data-name="矩形 2895" d="M2,0H14a0,0,0,0,1,0,0V16a0,0,0,0,1,0,0H2a2,2,0,0,1-2-2V2A2,2,0,0,1,2,0Z" transform="translate(942 556)" fill="#fff"/>
    <path id="矩形_2945" data-name="矩形 2945" d="M0,0H3.5a2,2,0,0,1,2,2V14a2,2,0,0,1-2,2H0a0,0,0,0,1,0,0V0A0,0,0,0,1,0,0Z" transform="translate(957.5 556)" fill="#fff"/>
  </g>
</svg>
